<svg width="32" height="32" viewBox="0 0 32 32" fill="none" xmlns="http://www.w3.org/2000/svg">
  <circle cx="16" cy="16" r="16" fill="#FF4000"/>
  <path d="M20.5 23a6.5 6.5 0 0 0 -1.8 -4.5h0s-0.3 -0.5 -0.4 -0.6H18.2c-0.03 -0.04 -0.09 0.004 -0.07 0.046 0.034 0.073 0.065 0.158 0.043 0.243 -0.036 0.106 -0.152 0.178 -0.259 0.142a0.23 0.23 0 0 1 -0.079 -0.052c-0.11 -0.114 -0.166 -0.304 -0.243 -0.537 -0.064 -0.215 -0.146 -0.486 -0.292 -0.76 -0.231 -0.462 -0.51 -0.68 -0.519 -0.689a0.04 0.04 0 0 0 -0.048 -0.0004 0.043 0.043 0 0 0 -0.015 0.046c0.001 0.004 0.117 0.384 -0.106 0.673 -0.089 0.115 -0.224 0.185 -0.381 0.194s-0.315 -0.042 -0.409 -0.136c-0.233 -0.233 -0.26 -0.65 -0.255 -0.877 0.015 -0.754 0.243 -1.284 0.361 -1.46a0.043 0.043 0 0 0 -0.001 -0.05 0.04 0.04 0 0 0 -0.047 -0.012C12.7 8.9 11.8 9.7 11.3 11.2c-0.192 0.53 -0.276 0.774 -0.343 0.924 -0.063 0.139 -0.121 0.203 -0.18 0.238 -0.033 0.02 -0.073 0.031 -0.113 0.032 -0.06 -0.006 -0.358 -0.061 -0.099 -0.56 0.021 -0.042 -0.035 -0.084 -0.067 -0.05l-0.204 0.226c-0.014 0.015 -0.027 0.03 -0.027 0.03l-0.034 0.038c-0.007 0.008 -0.016 0.02 -0.016 0.02C10.1 12.4 9.4 14.2 9 15.7c-0.23 0.84 -0.26 1.22 -0.26 1.42l0.0003 0.057c0 1.13 0.43 2.19 1.21 3.0s1.82 1.24 2.92 1.24 2.14 -0.44 2.92 -1.24c0.78 -0.8 1.21 -1.86 1.21 -3.0 0 -0.72 -0.093 -1.31 -0.25 -1.87M13.3 25.5c-1.18 0 -2.14 -0.98 -2.14 -2.19s0.96 -2.19 2.14 -2.19 2.14 0.98 2.14 2.19 -0.96 2.19 -2.14 2.19" fill="white"/>
</svg>
